# xmcd
#
# Track frame offsets: 
#        150
#        19876
#        34049
#        54555
#        72096
#        90149
#        110481
#        128609
#        146349
#        161756
#
# Disc length: 2396 seconds
#
# Revision: 0
# Processed by: cddbd v1.5.2PL0 Copyright (c) Steve Scherf et al.
# Submitted via: ExactAudioCopy v0.99pb5
#
DISCID=79095a0a
DTITLE=Carly Simon - The Best Of Carly Simon
DYEAR=1975
DGENRE=Pop
TTITLE0=That's The Way I've Always Heard It Should Be
TTITLE1=The Right Thing To Do
TTITLE2=Mockingbird
TTITLE3=Legend In Your Own Time
TTITLE4=Haven't Got Time For The Pain
TTITLE5=You're So Vain
TTITLE6=We Have No Secrets
TTITLE7=Night Owl
TTITLE8=Anticipation
TTITLE9=Attitude Dancing
EXTD=
EXTT0=
EXTT1=
EXTT2=
EXTT3=
EXTT4=
EXTT5=
EXTT6=
EXTT7=
EXTT8=
EXTT9=
PLAYORDER=
